<?xml version="1.0" standalone="yes"?>

<svg version="1.1" viewBox="0.0 0.0 960.0 720.0" fill="none" stroke="none" stroke-linecap="square" stroke-miterlimit="10" xmlns="http://www.w3.org/2000/svg" xmlns:xlink="http://www.w3.org/1999/xlink"><clipPath id="p.0"><path d="m0 0l960.0 0l0 720.0l-960.0 0l0 -720.0z" clip-rule="nonzero"></path></clipPath><g clip-path="url(#p.0)"><path fill="#000000" fill-opacity="0.0" d="m0 0l960.0 0l0 720.0l-960.0 0z" fill-rule="evenodd"></path><path fill="#a4c2f4" d="m180.10786 349.40378l0 0c0 -40.936035 33.18521 -74.12128 74.12126 -74.12128l451.54144 0c19.658203 0 38.51123 7.809204 52.41162 21.709625c13.900452 13.900421 21.709656 32.75348 21.709656 52.41165l0 296.4761c0 40.936035 -33.18524 74.12128 -74.12128 74.12128l-451.54144 0c-40.93605 0 -74.12126 -33.18524 -74.12126 -74.12128z" fill-rule="evenodd"></path><path fill="#ffffff" d="m779.89185 238.88495l0 0c0 -40.93521 -33.18457 -74.11977 -74.11981 -74.11977l-25.844238 0l0 0l-149.94598 0l-275.75418 0c-19.657776 0 -38.510437 7.809021 -52.410583 21.709183c-13.900162 13.9001465 -21.709183 32.752808 -21.709183 52.410583l0 185.29944l0 0l0 111.17963l0 0c0 40.93524 33.184555 74.11981 74.11977 74.11981l275.75418 0l155.52802 65.48035l-5.5820312 -65.48035l25.844238 0c40.93524 0 74.11981 -33.18457 74.11981 -74.11981l0 0l0 -111.17963l0 0z" fill-rule="evenodd"></path><path fill="#3c78d8" d="m779.89185 211.75989l0 0c0 -40.935226 -33.18457 -74.11977 -74.11981 -74.11977l-25.844238 0l0 0l-149.94598 0l-275.75418 0c-19.657776 0 -38.510437 7.809021 -52.410583 21.709167c-13.900162 13.900162 -21.709183 32.752808 -21.709183 52.4106l0 185.29944l0 0l0 111.17963l0 0c0 40.93524 33.184555 74.11981 74.11977 74.11981l275.75418 0l155.52802 65.48035l-5.5820312 -65.48035l25.844238 0c40.93524 0 74.11981 -33.18457 74.11981 -74.11981l0 0l0 -111.17963l0 0z" fill-rule="evenodd"></path><path fill="#ffffff" d="m779.89185 101.24255l0 0c0 -40.93522 -33.18457 -74.119774 -74.11981 -74.119774l-25.844238 0l0 0l-149.94598 0l-275.75418 0c-19.657776 0 -38.510437 7.8090267 -52.410583 21.709177c-13.900162 13.900154 -21.709183 32.75281 -21.709183 52.410595l0 185.29944l0 0l0 111.17963l0 0c0 40.93524 33.184555 74.11978 74.11977 74.11978l275.75418 0l155.52802 65.48038l-5.5820312 -65.48038l25.844238 0c40.93524 0 74.11981 -33.18454 74.11981 -74.11978l0 0l0 -111.17963l0 0z" fill-rule="evenodd"></path><path fill="#1c4587" d="m779.89185 74.117485l0 0c0 -40.93522 -33.18457 -74.11977 -74.11981 -74.11977l-25.844238 0l0 0l-149.94598 0l-275.75418 0c-19.657776 0 -38.510437 7.809025 -52.410583 21.709177c-13.900162 13.900154 -21.709183 32.752808 -21.709183 52.41059l0 185.29941l0 0l0 111.17966l0 0c0 40.93524 33.184555 74.11978 74.11977 74.11978l275.75418 0l155.52802 65.48038l-5.5820312 -65.48038l25.844238 0c40.93524 0 74.11981 -33.18454 74.11981 -74.11978l0 0l0 -111.17966l0 0z" fill-rule="evenodd"></path></g></svg>
